<?xml version="1.0" standalone="no"?>
<!DOCTYPE svg PUBLIC "-//W3C//DTD SVG 20010904//EN"
 "http://www.w3.org/TR/2001/REC-SVG-20010904/DTD/svg10.dtd">
<svg version="1.0" xmlns="http://www.w3.org/2000/svg"
 width="261.000000pt" height="261.000000pt" viewBox="0 0 261.000000 261.000000"
 preserveAspectRatio="xMidYMid meet">
<metadata>
Created by potrace 1.11, written by Peter Selinger 2001-2013
</metadata>
<g transform="translate(0.000000,261.000000) scale(0.100000,-0.100000)"
fill="#000000" stroke="none">
<path d="M739 2283 l-564 -324 -3 -652 -3 -652 58 -33 c32 -17 81 -45 108 -61
44 -25 752 -436 906 -526 l57 -33 208 120 c115 67 218 126 229 132 11 6 171
98 356 204 l335 194 2 651 3 652 -403 233 c-222 128 -476 275 -564 326 l-162
94 -563 -325z"/>
</g>
</svg>
